<svg data-v-70b83f88="" version="1.0" xmlns="http://www.w3.org/2000/svg" xmlns:xlink="http://www.w3.org/1999/xlink" width="100%" height="100%" viewBox="0 0 340.000000 250.000000" preserveAspectRatio="xMidYMid meet" color-interpolation-filters="sRGB" style="margin: auto;">
    <rect data-v-70b83f88="" x="0" y="0" width="100%" height="100%" fill="#fff" fill-opacity="0" class="background"></rect>  <g data-v-70b83f88="" fill="#333" class="iconblsvg-g iconsvg" transform="translate(63.07928466796875,107.68596649169922)"><g class="tp-name" opacity="1" transform="matrix(1,0,0,1,0,0)"><g data-gra="path-name" transform="translate(0, 2.8871169790936815)"><g transform="scale(1)"><path d="M12.3-14.77C14.49-15.52 15.1-17.38 15.1-20.41 15.1-25 14.44-28.33 9.96-28.33L1.25-28.33 1.25 0 6.99 0 6.99-12.93C8.61-12.93 9.14-12.69 9.14-11.08L9.14 0 14.68 0 14.74-10.72C14.74-12.94 14.1-14.41 12.3-14.77ZM9.56-20.41C9.56-18.7 9.17-17.84 8.38-17.84L7.02-17.84 7.02-23.09 8.34-23.09C9.64-23.09 9.56-21.86 9.56-20.41ZM16.98 0L28.69 0 28.69-5.51 22.76-5.51 22.76-12 28.1-12 28.1-17.35 22.76-17.35 22.76-22.85 28.33-22.85 28.33-28.33 16.98-28.33ZM29.81 0L35.32 0 35.65-4.58 39.08-4.58 39.48 0 44.85 0 42.15-28.33 32.55-28.33ZM36.08-9.1L37.13-23.51 37.4-23.51 38.65-9.1ZM53.16 0.26C57.93 0.26 60.32-2.11 60.32-6.86L60.32-12.2 54.61-12.2 54.61-7.09C54.61-5.66 54.17-4.95 53.29-4.95 52.23-4.95 51.98-5.87 51.98-7.09L51.98-21.3C51.98-22.5 52.18-23.38 53.29-23.38 54.46-23.38 54.61-22.58 54.61-21.24L54.61-17.05 60.25-17.05 60.25-21.93C60.25-26.19 57.51-28.59 53.29-28.59 48.21-28.59 46.34-25.36 46.34-20.08L46.34-7.02C46.34-2.67 48.9 0.26 53.16 0.26ZM64.64 0L70.31 0 70.31-22.89 73.68-22.89 73.68-28.33 61.28-28.33 61.28-22.89 64.64-22.89Z" transform="translate(-1.25, 28.59000015258789)"></path></g></g> <g transform="translate(75.43000030517578, 0)"><g><g class="imagesvg"><g><rect fill="#333" fill-opacity="0" stroke-width="2" x="0" y="0" width="30.17143547251007" height="34.628067798129315" class="image-rect"></rect> <svg x="0" y="0" width="30.17143547251007" height="34.628067798129315" filtersec="colorsb7095258904" class="image-svg-svg primary" style="overflow: visible;"><svg xmlns="http://www.w3.org/2000/svg" viewBox="0 0 87.12999725341797 100"><title>资源 341</title><path d="M6.84 32.75L0 28.79v47.5L41.07 100V52.58l-24.19-14z" fill="#184473"></path><path fill="#03b6f0" d="M13.59 29.98l30.14-17.41 30.12 17.4 4.42-2.57 6.45-3.73L43.73 0 2.72 23.69l10.85 6.28.02.01z"></path><path d="M80.29 32.75l-10 5.81-2.11 1.22-22.12 12.8V100l41.07-23.71v-47.5z" fill="#0582d2"></path></svg></svg> <!----></g></g></g></g> <g data-gra="path-name-1" fill="#333" transform="translate(108.6014347076416, 2.8871169790936815)"><g transform="scale(1)"><path d="M3.69 0L9.37 0 9.37-22.89 12.73-22.89 12.73-28.33 0.33-28.33 0.33-22.89 3.69-22.89ZM21.07 0.26C25.83 0.26 28.07-2.84 28.07-7.72L28.07-21.21C28.07-25.96 25.76-28.59 21.07-28.59 16.39-28.59 14.08-25.96 14.08-21.21L14.08-7.72C14.08-2.87 16.33 0.26 21.07 0.26ZM21.07-4.95C19.86-4.95 19.69-6.07 19.69-7.42L19.69-21.24C19.69-22.67 20.16-23.38 21.11-23.38 22.19-23.38 22.36-22.42 22.36-21.3L22.36-7.45C22.36-6.16 22.23-4.95 21.07-4.95ZM37.1 0.26C41.86 0.26 44.09-2.84 44.09-7.72L44.09-21.21C44.09-25.96 41.79-28.59 37.1-28.59 32.42-28.59 30.11-25.96 30.11-21.21L30.11-7.72C30.11-2.87 32.36 0.26 37.1 0.26ZM37.1-4.95C35.89-4.95 35.72-6.07 35.72-7.42L35.72-21.24C35.72-22.67 36.19-23.38 37.13-23.38 38.21-23.38 38.39-22.42 38.39-21.3L38.39-7.45C38.39-6.16 38.26-4.95 37.1-4.95ZM46.37 0L57.88 0 57.88-4.81 52.04-4.81 52.04-28.33 46.37-28.33ZM70.15-15.76C72.08-16.29 73.05-17.91 73.05-20.61L73.05-21.87C73.05-26.27 71.45-28.33 67.15-28.33L59.46-28.33 59.46 0 67.15 0C69.5 0 71.12-0.78 72.03-2.33 72.93-3.88 73.38-6.16 73.38-9.17 73.38-12.54 72.71-15.1 70.15-15.76ZM66.16-17.68L65-17.68 65-23.98 66.19-23.98C67-23.98 67.41-23.51 67.41-22.59L67.41-19.75C67.41-18.61 67.23-17.68 66.16-17.68ZM67.77-10.62L67.77-7.09C67.77-5.68 67.04-4.98 65.56-4.98L65-5.01 65-13.22 66.06-13.22C67.47-13.22 67.77-12.13 67.77-10.62ZM82.02 0.26C86.78 0.26 89.01-2.84 89.01-7.72L89.01-21.21C89.01-25.96 86.7-28.59 82.02-28.59 77.33-28.59 75.03-25.96 75.03-21.21L75.03-7.72C75.03-2.87 77.27 0.26 82.02 0.26ZM82.02-4.95C80.81-4.95 80.63-6.07 80.63-7.42L80.63-21.24C80.63-22.67 81.11-23.38 82.05-23.38 83.13-23.38 83.31-22.42 83.31-21.3L83.31-7.45C83.31-6.16 83.18-4.95 82.02-4.95ZM90.46 0L96.23 0 98.05-11.08 99.83 0 105.57 0 102.53-15.04 104.97-28.36 99.4-28.36 98.11-18.6 96.63-28.36 91.09-28.36 93.5-15.04Z" transform="translate(-0.33000001311302185, 28.59000015258789)"></path></g></g></g> <!----></g><defs v-gra="od"></defs></svg>
